<svg width="92" height="36" viewBox="0 0 341 129" xmlns="http://www.w3.org/2000/svg" data-cursor-size="big" data-v-84b31730=""><g data-cursor-size="big" fill-rule="nonzero" fill="none"><g fill="#C5C5C5" data-cursor-size="big"><path d="M1.047 126.91l11.996-26.528a.9.9 0 01.66-.442h.4a.9.9 0 01.66.442l11.996 26.528c.13.223.124.5-.016.718a.678.678 0 01-.644.308h-2.48a.92.92 0 01-.899-.583l-2.42-5.41H7.466c-.78 1.83-1.6 3.6-2.38 5.41a.98.98 0 01-.9.583H1.707a.678.678 0 01-.644-.308.687.687 0 01-.015-.718m17.754-8.346l-4.818-10.8h-.2l-4.739 10.8h9.757zM47.273 101.086a.762.762 0 01.74-.744h10.656a8.431 8.431 0 016.017 2.428 8.532 8.532 0 012.54 6 8.744 8.744 0 01-5.798 8.044l5.359 10.056c.15.235.157.535.018.776a.739.739 0 01-.678.37h-3.1a.719.719 0 01-.619-.341l-5.218-10.459H51.19v10.056a.762.762 0 01-.74.745h-2.559a.742.742 0 01-.74-.745l.12-26.186zm11.096 12.671c2.655-.055 4.78-2.236 4.779-4.907-.076-2.603-2.19-4.677-4.779-4.686h-6.978v9.593h6.978zM77.303 101.086c0-.41.332-.744.74-.744h15.675c.405.01.73.338.74.744v2.213a.742.742 0 01-.74.744H81.322v8.045H91.8c.407.02.73.354.74.764v2.192a.742.742 0 01-.74.744H81.322v8.468h12.396c.41 0 .74.333.74.744v2.172a.742.742 0 01-.74.744H78.043a.718.718 0 01-.529-.212.726.726 0 01-.21-.532v-26.086zM108.094 104.143h-6.398a.742.742 0 01-.74-.744v-2.212a.762.762 0 01.74-.744h16.855c.409 0 .74.333.74.744v2.212a.726.726 0 01-.21.533.718.718 0 01-.53.211h-6.378v23.15a.762.762 0 01-.74.744h-2.6a.762.762 0 01-.739-.744v-23.15zM127.488 101.086a.762.762 0 01.74-.744h15.675c.409 0 .74.333.74.744v2.213a.726.726 0 01-.21.532.718.718 0 01-.53.212h-12.376v8.045h10.457c.412.01.74.35.74.764v2.192a.726.726 0 01-.211.533.718.718 0 01-.53.211h-10.456v8.468h12.376a.718.718 0 01.53.211c.14.141.216.334.21.533v2.172a.726.726 0 01-.21.532.718.718 0 01-.53.212h-15.675a.742.742 0 01-.74-.744v-26.086zM160.178 113.797l-7.757-12.349a.707.707 0 01-.03-.77.698.698 0 01.69-.336h3.338a.819.819 0 01.66.362l5.519 9.473 5.598-9.412a.759.759 0 01.64-.362h3.319a.718.718 0 01.682.34.728.728 0 01-.003.766l-7.757 12.349 7.997 13.052c.152.231.156.53.01.764a.698.698 0 01-.69.323h-3.019a.838.838 0 01-.66-.342l-6.157-10.056-5.999 10.056a.878.878 0 01-.66.342h-3.098c-.7 0-1.02-.584-.7-1.087l8.077-13.113zM194.868 101.086a.762.762 0 01.74-.744h8.777c3.467-.455 6.75 1.691 7.744 5.063.995 3.372-.593 6.972-3.745 8.493a7.154 7.154 0 014.898 6.436c0 4.404-3.599 7.602-8.537 7.602h-9.217a.742.742 0 01-.74-.744l.08-26.106zm9.997 23.23a4.166 4.166 0 003.03-1.245 4.217 4.217 0 001.208-3.059c-.212-2.481-2.37-4.329-4.838-4.143h-5.359v8.387l5.959.06zm-.62-12.067a3.988 3.988 0 002.9-1.249 4.036 4.036 0 001.099-2.975 3.814 3.814 0 00-1.1-2.916 3.767 3.767 0 00-2.9-1.106h-5.298v8.286l5.299-.04zM223.2 101.086a.762.762 0 01.739-.744h10.677a8.431 8.431 0 016.003 2.435 8.532 8.532 0 012.534 5.992 8.744 8.744 0 01-5.798 8.045l5.358 10.056c.15.235.158.535.019.776a.739.739 0 01-.679.37h-3.079a.679.679 0 01-.62-.341l-5.218-10.459h-5.998v10.056a.762.762 0 01-.74.745h-2.56a.742.742 0 01-.739-.745l.1-26.186zm11.096 12.671c2.655-.055 4.779-2.236 4.778-4.907-.075-2.603-2.19-4.677-4.778-4.686h-6.978v9.593h6.978zM249.551 126.91l11.996-26.528a.94.94 0 01.68-.442h.38a.86.86 0 01.66.442l11.996 26.528a.707.707 0 01-.039.715.698.698 0 01-.64.311h-2.46a.9.9 0 01-.9-.583l-2.439-5.41H255.97c-.78 1.83-1.6 3.6-2.4 5.41a.96.96 0 01-.899.583h-2.46a.678.678 0 01-.643-.308.687.687 0 01-.016-.718m17.735-8.346l-4.819-10.8h-.18l-4.798 10.8h9.797zM283.12 100.664a.762.762 0 01.76-.724h.96l17.015 19.81v-18.664a.762.762 0 01.76-.744h2.5c.403.01.728.338.739.744v26.549a.742.742 0 01-.74.703h-1.02l-17.014-20.353v19.207a.726.726 0 01-.21.532.718.718 0 01-.53.212h-2.46a.762.762 0 01-.76-.744v-26.528zM317.47 101.086c0-.395.307-.722.7-.744h9.017c7.576 0 13.716 6.177 13.716 13.797 0 7.62-6.14 13.797-13.716 13.797h-9.017a.726.726 0 01-.7-.744v-26.106zm9.158 23.17c5.52 0 9.997-4.503 9.997-10.056 0-5.554-4.476-10.057-9.997-10.057h-5.159v20.113h5.159z" data-cursor-size="big"></path></g><g fill="#FFF" data-cursor-size="big"><path d="M40.09 82.09l-.24-8c-3.74 6.62-11 9.7-18.79 9.7C9.14 83.79 1 76.27 1 65c0-11.92 7.89-19 23.84-21.37l14.51-2.06v-.78c0-5.3-4.15-8.43-13-8.43a31.64 31.64 0 00-21.49 8.55v-18c5.54-3.74 13.6-6.5 23.43-6.5 18.66 0 29.27 8.8 29.27 25.53V82.1l-17.47-.01zm-13.85-12.7c7.89 0 13.07-5.71 13.07-12.95v-2.22l-11.26 1.81c-6.09.91-9.21 3.37-9.21 7.4.16 3.6 3.16 5.96 7.4 5.96zM59 33.67V31.2L88.93.03h.53v18.1h16.2v15.54h-16.2V57.1c0 6.87 2.84 9.58 8.92 9.58a12.63 12.63 0 007.24-2.34V80.9c-3 1.56-7.52 2.72-13.61 2.72-13.6 0-21.37-7.65-21.37-22V33.63H59v.04zM141.51 16.45c19.69 0 34.69 14.63 34.69 33.66 0 19.03-15 33.67-34.69 33.67-19.69 0-34.7-14.63-34.7-33.67s15-33.66 34.7-33.66zm0 50.11a16.45 16.45 0 10-16.08-16.45 16.24 16.24 0 0016.08 16.45zM202 82.09h-18.9v-64H202v8c3.5-5.84 9.58-9.7 18-9.7 8.8 0 15.29 4 18.79 11.14 4-6.75 11.26-11.14 20.59-11.14 14.63 0 22.94 9.82 22.94 25.52v40.17h-18.93V46.41c0-7.89-3.62-12.7-10.24-12.7s-10.89 5.18-11 13.85v34.58h-18.92V46.66c0-8.3-3.5-12.95-10.12-12.95-6.62 0-11.11 5.43-11.11 14.26v34.12zM289.78 58.25c6.87 5.55 15.91 9.58 24.34 9.58 5.55 0 8.3-1.69 8.3-4.93 0-9.83-33.42-.66-33.42-24.22 0-13.07 9.82-22.28 27-22.28a50.78 50.78 0 0121.87 5.31v19.32a33.42 33.42 0 00-22.53-9.09c-6.21 0-8.3 2.22-8.3 4.81 0 8.8 33.91.78 33.91 24.75 0 14.39-11.8 22.28-26.8 22.28-10.36 0-18.25-2.34-24.46-5.84V58.25h.09z" data-cursor-size="big"></path></g></g></svg>